<?xml version="1.0" standalone="no"?>
<!DOCTYPE svg PUBLIC "-//W3C//DTD SVG 20010904//EN"
 "http://www.w3.org/TR/2001/REC-SVG-20010904/DTD/svg10.dtd">
<svg version="1.0" xmlns="http://www.w3.org/2000/svg"
 width="1125.000000pt" height="1125.000000pt" viewBox="0 0 1125.000000 1125.000000"
 preserveAspectRatio="xMidYMid meet">
<metadata>
Created by potrace 1.14, written by Peter Selinger 2001-2017
</metadata>
<g transform="translate(0.000000,1125.000000) scale(0.100000,-0.100000)"
fill="#000000" stroke="none">
<path d="M5509 9936 c-2 -2 -80 -7 -174 -10 -93 -4 -190 -12 -215 -18 -25 -5
-85 -14 -135 -19 -49 -6 -103 -15 -120 -21 -16 -6 -52 -15 -80 -20 -27 -5 -63
-14 -80 -20 -16 -6 -57 -16 -90 -24 -63 -14 -145 -42 -182 -62 -12 -7 -30 -12
-40 -12 -10 -1 -36 -9 -58 -20 -22 -11 -46 -19 -54 -20 -13 0 -163 -68 -201
-91 -8 -5 -26 -14 -40 -20 -54 -22 -131 -62 -135 -69 -3 -4 -16 -11 -30 -14
-13 -3 -60 -30 -103 -59 -104 -69 -111 -74 -152 -96 -19 -11 -73 -49 -120 -85
-47 -36 -116 -89 -154 -118 -101 -78 -399 -378 -491 -495 -150 -191 -204 -264
-244 -335 -9 -15 -43 -74 -77 -130 -34 -57 -79 -141 -101 -188 -23 -47 -59
-124 -82 -172 -22 -47 -41 -92 -41 -100 0 -7 -6 -25 -14 -40 -8 -15 -17 -42
-21 -60 -4 -18 -11 -37 -15 -43 -12 -15 -57 -155 -65 -200 -3 -22 -13 -60 -20
-85 -26 -85 -55 -207 -55 -234 0 -15 -9 -71 -19 -124 -40 -203 -46 -750 -10
-967 5 -33 14 -98 20 -145 6 -47 17 -107 24 -135 16 -56 40 -151 60 -235 7
-30 23 -80 35 -110 12 -30 30 -80 40 -110 48 -143 64 -182 130 -319 39 -80 75
-153 81 -161 5 -8 13 -25 19 -37 5 -12 24 -44 42 -70 19 -26 39 -59 46 -73 23
-45 104 -170 130 -200 24 -27 128 -165 138 -181 10 -19 165 -188 240 -263 116
-116 228 -212 349 -301 44 -32 85 -63 90 -69 6 -6 42 -31 80 -56 76 -49 83
-53 165 -102 30 -17 57 -35 60 -38 3 -4 86 -46 185 -95 99 -48 192 -93 207
-101 14 -8 33 -14 42 -14 8 0 35 -9 58 -19 99 -44 201 -78 291 -97 37 -7 76
-18 87 -24 10 -5 27 -10 37 -10 10 0 47 -8 83 -19 36 -11 103 -24 150 -30 47
-5 106 -15 131 -20 26 -6 114 -13 195 -16 82 -4 176 -10 209 -15 37 -5 124 -3
225 6 91 7 194 13 230 14 36 0 101 9 145 20 44 11 101 20 127 20 26 0 70 9 98
20 28 11 64 20 81 20 16 0 42 6 57 14 15 8 50 17 77 21 28 4 62 14 77 21 15 8
35 14 45 14 10 0 31 7 47 15 16 8 53 22 82 31 30 8 56 20 59 25 4 5 15 9 25 9
11 0 39 9 62 19 24 10 54 24 68 30 14 6 32 15 40 20 8 5 55 28 105 52 49 24
112 59 140 76 27 18 55 33 62 33 6 0 18 6 25 14 8 7 29 22 47 32 263 148 621
456 841 724 30 36 57 67 60 70 3 3 13 16 22 30 9 14 38 53 64 87 27 34 55 69
61 80 52 76 63 94 63 98 0 3 18 31 40 62 22 32 40 62 40 67 0 5 6 17 14 25 26
29 216 418 216 441 0 7 6 26 14 43 7 18 23 58 34 90 12 31 30 81 41 110 11 28
23 72 27 97 4 25 11 53 16 62 4 10 15 48 22 85 8 37 19 86 25 108 5 22 15 74
20 115 6 41 15 100 20 130 10 59 37 438 34 480 0 14 -6 113 -13 220 -6 107
-20 237 -31 287 -10 51 -19 114 -19 141 0 26 -9 73 -20 105 -11 31 -20 69 -20
85 0 15 -5 33 -11 39 -6 6 -17 37 -25 70 -22 95 -46 177 -54 188 -5 6 -23 53
-40 105 -25 78 -115 280 -151 340 -5 8 -14 26 -19 40 -15 35 -17 40 -45 85
-13 22 -29 52 -36 68 -6 15 -14 27 -18 27 -4 0 -15 15 -24 33 -10 17 -26 46
-37 62 -11 17 -27 45 -35 63 -8 17 -19 32 -24 32 -5 0 -31 33 -57 72 -27 40
-56 80 -65 89 -9 9 -36 43 -60 74 -87 115 -337 367 -464 468 -138 110 -322
243 -365 264 -14 7 -52 31 -85 53 -33 22 -73 47 -90 55 -16 9 -37 20 -45 25
-8 5 -42 21 -75 35 -33 15 -67 30 -75 35 -52 31 -187 92 -214 97 -17 3 -42 12
-55 21 -14 8 -39 19 -55 23 -17 4 -67 21 -111 37 -44 16 -98 32 -120 36 -22 4
-62 13 -90 21 -152 42 -208 54 -280 60 -43 4 -91 12 -105 17 -33 14 -559 45
-571 34z m471 -489 c41 -9 103 -18 137 -22 35 -3 78 -12 95 -19 18 -7 59 -16
91 -20 32 -3 71 -12 85 -20 15 -7 44 -16 64 -20 20 -4 50 -13 65 -21 15 -8 37
-15 47 -15 20 0 120 -37 171 -64 17 -9 37 -16 46 -16 9 0 22 -6 28 -14 7 -8
27 -17 45 -20 19 -4 39 -13 45 -20 7 -8 24 -17 39 -21 15 -4 29 -10 32 -14 3
-4 34 -22 70 -40 36 -18 83 -44 105 -57 22 -13 51 -29 65 -36 14 -7 27 -16 30
-20 7 -9 79 -58 86 -58 3 0 30 -20 61 -45 30 -25 58 -45 62 -45 3 0 29 -20 56
-45 l49 -46 -754 -752 c-415 -414 -770 -765 -789 -780 -18 -15 -43 -27 -55
-27 -34 0 -126 -47 -126 -65 0 -12 -12 -15 -55 -15 -30 0 -55 4 -55 8 0 5 -25
17 -55 27 -30 11 -55 23 -55 27 0 19 37 48 60 48 14 0 31 9 38 20 7 11 19 20
27 20 14 0 22 19 29 66 2 15 12 19 45 21 65 2 83 25 79 95 -3 57 -3 58 24 58
15 0 30 5 33 10 3 6 15 10 26 10 17 0 19 7 19 65 0 58 -2 65 -20 65 -14 0 -20
7 -20 21 0 11 -8 33 -19 47 -10 15 -27 48 -39 74 -11 25 -29 51 -41 57 -11 7
-28 25 -36 42 -9 16 -27 34 -40 39 -14 5 -25 14 -25 20 0 5 -5 10 -11 10 -15
0 -39 26 -39 43 0 9 -13 27 -30 40 -19 17 -28 31 -24 41 3 9 3 31 0 50 -5 28
-13 35 -46 46 -27 9 -40 19 -40 32 0 11 -7 18 -20 18 -13 0 -20 -7 -20 -20 0
-17 -7 -20 -50 -20 -43 0 -50 3 -50 20 0 11 -6 20 -14 20 -8 0 -20 2 -28 3 -7
2 -10 2 -5 0 4 -3 7 -13 7 -24 0 -10 7 -19 15 -19 28 0 15 -18 -17 -25 -56
-12 -138 -46 -238 -100 -36 -19 -79 -35 -96 -35 -57 0 -94 -12 -94 -29 0 -12
-18 -22 -62 -36 -35 -10 -72 -23 -83 -29 -20 -10 -26 -12 -45 -15 -5 0 -27
-17 -47 -36 -20 -19 -45 -35 -54 -35 -9 0 -28 -9 -42 -20 -14 -11 -30 -20 -36
-20 -7 0 -14 -7 -17 -15 -4 -8 -12 -15 -19 -15 -12 0 -55 -103 -55 -134 0 -9
-11 -21 -25 -26 -14 -5 -25 -13 -25 -18 0 -8 -43 -32 -58 -32 -6 0 -33 20 -81
62 -11 9 -18 6 -36 -14 -15 -17 -41 -30 -79 -39 -31 -7 -56 -17 -56 -24 0 -11
-100 -37 -109 -29 -3 2 -8 26 -12 52 -4 26 -10 69 -14 95 -5 33 -4 55 5 72 9
17 11 45 5 102 -11 106 -11 185 -2 266 4 37 4 67 -1 67 -12 0 -42 -72 -42
-101 0 -23 -2 -24 -80 -24 -87 -1 -132 -21 -138 -64 -2 -11 -10 -21 -19 -21
-26 0 -42 -32 -43 -81 0 -51 18 -99 38 -99 8 0 16 -8 19 -19 2 -10 17 -28 32
-39 31 -23 131 -48 155 -39 9 4 19 6 22 6 3 0 12 8 20 18 12 16 14 5 15 -84 2
-57 3 -113 3 -125 1 -15 -8 -27 -27 -36 -16 -8 -31 -20 -34 -28 -3 -8 -11 -14
-18 -14 -16 0 -27 -28 -20 -51 4 -12 18 -19 43 -21 27 -2 40 -9 48 -27 7 -13
18 -27 25 -32 7 -4 16 -34 20 -66 13 -96 34 -184 44 -181 6 2 11 -13 13 -32 2
-19 7 -37 11 -40 10 -8 31 -59 31 -78 0 -10 9 -34 20 -55 11 -20 20 -46 20
-56 0 -11 16 -37 35 -58 19 -21 35 -43 35 -49 0 -19 44 -52 88 -65 39 -11 45
-10 71 9 46 33 76 37 114 13 43 -27 70 -26 117 0 37 21 40 21 75 5 33 -16 38
-16 60 -2 21 14 47 22 78 25 4 1 7 7 7 15 0 10 16 15 55 18 l55 3 0 -41 c0
-23 -5 -56 -12 -75 -11 -32 -80 -109 -98 -109 -5 0 -13 -6 -17 -14 -4 -7 -25
-21 -45 -31 -21 -9 -38 -24 -38 -31 0 -8 -4 -14 -8 -14 -5 0 -19 -20 -32 -45
-14 -28 -30 -45 -41 -45 -37 0 -72 -214 -67 -406 l3 -101 -282 -282 -283 -282
-49 2 c-66 3 -102 -20 -99 -63 1 -17 10 -35 19 -41 13 -8 0 -26 -85 -112 -56
-56 -111 -108 -123 -114 -12 -6 -49 -11 -83 -11 -67 0 -150 -17 -150 -31 0 -5
3 -8 8 -7 13 2 42 -14 42 -24 0 -13 20 -32 45 -43 14 -6 -15 -11 -94 -16 -63
-5 -121 -11 -128 -13 -7 -3 -13 -16 -13 -29 0 -21 6 -25 43 -30 23 -3 57 -12
76 -20 l34 -14 -36 -13 c-26 -8 -37 -18 -37 -31 0 -18 -131 -159 -148 -159
-12 0 -49 41 -93 103 -65 90 -159 227 -159 232 0 3 -18 31 -40 62 -22 32 -40
64 -40 71 0 8 -9 25 -20 39 -11 14 -20 31 -20 38 0 7 -6 18 -14 24 -8 7 -18
25 -21 41 -3 16 -12 34 -20 40 -7 6 -16 26 -19 44 -4 19 -13 39 -21 46 -7 6
-17 26 -21 43 -3 18 -11 38 -17 45 -13 17 -57 142 -57 165 0 9 -9 34 -20 54
-11 21 -20 49 -20 63 0 14 -6 34 -14 45 -7 11 -17 49 -21 85 -4 36 -13 79 -20
97 -7 17 -16 58 -20 90 -3 32 -13 101 -22 153 -20 119 -23 685 -3 744 6 20 18
87 25 149 8 61 21 139 30 172 24 92 45 166 62 215 8 25 19 59 24 75 17 60 51
151 78 210 89 188 120 250 172 340 66 116 146 238 180 276 13 14 30 35 37 45
7 11 21 31 31 47 58 88 374 407 477 482 15 11 49 37 76 58 26 20 52 37 58 37
5 0 10 4 10 8 0 8 121 92 145 101 6 2 35 20 65 40 91 60 79 53 242 130 37 17
71 31 76 31 5 0 15 7 22 15 7 8 19 15 28 15 8 0 33 8 56 19 63 28 241 89 326
110 25 7 97 25 160 41 63 16 138 30 165 30 28 0 66 5 85 11 58 19 211 27 475
24 172 -2 274 -8 325 -18z m1942 -1061 c84 -92 308 -415 329 -475 6 -17 15
-31 19 -31 4 0 11 -12 15 -27 3 -14 15 -38 26 -51 10 -14 19 -30 19 -37 0 -7
7 -18 15 -25 8 -7 15 -19 15 -28 0 -15 25 -75 61 -144 10 -20 19 -47 19 -60 0
-13 9 -36 20 -53 11 -16 20 -43 20 -59 0 -16 7 -37 16 -47 9 -10 18 -37 21
-61 3 -24 12 -55 19 -69 7 -14 16 -50 20 -80 4 -30 13 -67 21 -82 8 -15 18
-69 23 -120 5 -51 13 -112 19 -137 16 -73 23 -412 12 -590 -9 -159 -30 -325
-53 -420 -6 -25 -16 -70 -22 -100 -6 -30 -17 -65 -24 -77 -6 -12 -12 -36 -12
-54 0 -17 -8 -50 -19 -73 -10 -23 -23 -56 -30 -73 -6 -18 -16 -48 -22 -65 -7
-18 -20 -51 -30 -74 -11 -23 -19 -45 -19 -51 0 -14 -159 -325 -176 -344 -8 -8
-14 -19 -14 -23 0 -11 -68 -118 -115 -181 -22 -29 -49 -66 -60 -81 -84 -117
-130 -168 -290 -329 -208 -207 -292 -274 -600 -473 -11 -6 -31 -18 -45 -24
-14 -7 -36 -20 -49 -30 -13 -10 -30 -18 -38 -18 -8 0 -26 -9 -40 -20 -14 -11
-32 -20 -40 -20 -8 0 -26 -9 -40 -20 -14 -11 -33 -20 -41 -20 -9 0 -23 -6 -31
-14 -9 -7 -52 -26 -96 -40 -44 -15 -93 -33 -110 -40 -65 -30 -141 -56 -161
-56 -11 0 -45 -9 -77 -20 -31 -11 -68 -20 -82 -20 -14 0 -38 -6 -53 -14 -15
-8 -63 -17 -107 -21 -44 -4 -107 -14 -140 -21 -80 -20 -566 -30 -690 -15 -188
22 -312 42 -354 56 -25 8 -57 15 -73 15 -25 0 -81 15 -208 56 -25 9 -58 19
-75 24 -55 15 -133 46 -147 57 -7 6 -27 15 -43 19 -17 3 -41 12 -55 19 -14 7
-54 27 -90 44 -36 18 -101 52 -145 76 -44 24 -87 47 -95 51 -8 4 -36 23 -62
41 -26 18 -52 33 -56 33 -5 0 -17 9 -27 20 -10 11 -24 20 -30 20 -7 0 -28 14
-46 31 -19 16 -50 41 -69 53 -19 13 -60 47 -89 75 l-55 52 275 275 c150 152
292 289 313 305 29 22 50 29 83 29 23 0 43 -4 43 -9 0 -5 23 -14 50 -21 28 -7
53 -16 56 -21 3 -5 12 -9 21 -9 30 0 133 -55 133 -71 0 -19 83 -79 110 -79 10
0 28 -13 39 -29 12 -16 43 -43 70 -60 32 -19 51 -38 53 -53 2 -13 8 -22 15
-21 6 1 19 -7 28 -17 10 -11 23 -20 28 -20 5 0 32 -22 59 -50 27 -27 58 -50
69 -50 12 0 28 -13 39 -33 19 -32 70 -77 88 -77 5 0 17 -9 27 -20 10 -11 24
-20 32 -20 7 0 16 -7 19 -15 4 -8 11 -15 18 -15 6 0 30 -18 54 -40 23 -22 49
-40 57 -40 7 0 18 -6 22 -14 8 -13 151 -86 170 -86 6 0 13 -6 16 -14 5 -13 44
-25 97 -29 20 -2 24 2 22 18 -5 24 -16 32 -67 46 -45 12 -121 47 -146 68 -9 7
-30 25 -45 39 -16 15 -31 27 -34 28 -30 7 -70 28 -70 38 0 12 -84 70 -124 86
-15 5 -26 16 -26 25 0 8 -4 15 -10 15 -5 0 -10 7 -10 15 0 8 -6 15 -14 15 -7
0 -36 23 -64 50 -28 28 -56 50 -62 50 -19 0 -75 51 -80 73 -5 20 -38 45 -86
66 -12 5 -31 23 -43 40 -12 17 -26 30 -30 28 -17 -5 -101 65 -101 84 0 12 -7
19 -20 19 -11 0 -42 16 -70 36 -27 19 -53 35 -57 35 -19 -1 -43 11 -43 22 0
13 -111 52 -178 63 -23 4 -44 10 -47 13 -2 4 49 60 113 124 l117 117 37 -11
c21 -5 41 -16 45 -23 10 -16 71 -46 95 -46 10 0 27 -9 37 -19 11 -11 51 -32
88 -47 37 -14 72 -30 77 -35 6 -5 16 -9 23 -9 7 0 28 -16 47 -35 19 -19 47
-37 63 -41 50 -11 103 -38 103 -51 0 -7 6 -13 13 -13 7 0 30 -9 52 -20 22 -11
43 -20 48 -20 28 0 110 -46 117 -66 6 -16 20 -25 45 -30 41 -7 72 -35 87 -76
6 -16 16 -28 22 -28 7 0 20 -16 29 -35 10 -19 25 -51 34 -72 10 -20 26 -38 35
-41 10 -2 18 -10 18 -17 0 -7 14 -27 30 -45 17 -18 33 -44 36 -59 9 -41 48
-111 61 -111 7 0 13 -9 13 -20 0 -11 9 -29 20 -40 11 -11 20 -24 20 -29 0 -29
41 -99 60 -104 20 -5 71 23 100 53 3 3 24 14 48 24 23 11 42 25 42 32 0 7 18
20 40 30 22 10 40 21 40 24 0 4 43 28 95 55 52 26 95 54 95 61 0 8 10 14 24
14 13 0 26 6 29 13 3 7 34 28 70 45 36 18 67 38 70 46 3 7 18 17 34 20 40 11
133 65 133 79 0 11 127 77 148 77 5 0 21 11 34 25 14 14 41 30 59 36 59 19
139 64 135 75 -2 5 28 25 68 43 121 56 138 66 143 79 3 6 13 12 23 12 18 0
124 50 147 70 7 5 16 10 20 10 4 0 19 12 32 25 13 14 31 25 40 25 9 0 34 11
56 25 22 13 50 25 62 25 12 0 26 6 30 14 8 13 80 56 95 56 4 0 19 11 34 25 14
13 30 22 34 20 9 -6 50 60 50 80 0 8 16 19 34 26 19 7 33 16 30 20 -2 4 9 13
26 21 16 7 30 19 30 25 0 7 5 13 12 13 16 0 58 41 58 56 0 7 15 25 34 39 30
23 36 35 46 93 10 56 10 83 -4 162 -10 57 -22 99 -31 106 -8 6 -15 20 -15 30
0 10 -9 33 -20 49 -11 17 -20 40 -20 52 0 24 -31 83 -43 83 -19 0 -87 99 -87
125 0 23 -19 56 -52 88 -15 16 -28 35 -28 42 0 8 -6 18 -13 22 -16 10 -63 85
-59 96 1 4 -2 7 -8 7 -5 0 -25 17 -45 38 -31 33 -34 41 -29 77 7 50 -18 112
-49 124 -26 11 -67 63 -67 88 -1 20 -43 73 -60 73 -5 0 -10 5 -10 10 0 15 -42
70 -54 70 -17 0 -46 32 -46 52 0 10 -7 18 -15 18 -8 0 -15 7 -15 15 0 8 6 15
13 15 8 0 22 9 32 20 10 11 24 20 32 20 7 0 13 6 13 14 0 7 18 25 40 40 24 15
43 37 47 54 10 35 64 99 89 104 21 4 58 70 86 153 11 33 24 63 29 66 14 8 32
136 25 174 -4 19 -17 40 -31 49 -22 14 -25 23 -24 69 2 73 -7 97 -36 97 -13 0
-27 -4 -30 -10 -3 -5 -14 -10 -25 -10 -18 0 -30 -35 -46 -138 -6 -40 -7 -42
-23 -28 -10 9 -34 16 -53 16 -30 0 -46 -10 -97 -58 -33 -32 -61 -61 -61 -65 0
-4 -19 -25 -41 -47 -41 -39 -56 -50 -44 -30 11 19 -3 10 -36 -21 -19 -18 -49
-38 -68 -46 -21 -9 -37 -25 -44 -44 -7 -17 -21 -32 -34 -35 -13 -4 -23 -10
-23 -15 0 -5 -12 -14 -26 -19 -22 -9 -33 -5 -72 22 -26 18 -48 36 -50 41 -2 4
-12 7 -22 7 -10 0 -20 7 -23 15 -4 8 -31 21 -62 30 -30 9 -55 19 -55 23 0 4
249 256 552 559 393 393 559 553 575 553 12 0 28 -6 35 -14z m-2381 -308 c24
-24 56 -49 72 -55 15 -7 27 -20 27 -28 0 -17 83 -105 100 -105 5 0 10 -6 10
-14 0 -7 16 -26 35 -40 21 -17 35 -36 35 -49 0 -12 13 -35 29 -50 28 -26 67
-125 58 -150 -2 -6 -23 -11 -48 -11 l-44 -1 3 -77 c3 -75 2 -78 -20 -78 -13 0
-36 7 -51 15 -41 21 -55 3 -59 -76 l-3 -63 -37 -9 c-22 -5 -38 -15 -38 -23 0
-8 -6 -14 -12 -14 -14 0 -58 -94 -58 -120 0 -26 22 -40 60 -40 20 0 58 -7 84
-16 34 -12 67 -15 112 -11 35 2 64 2 64 -2 0 -11 -698 -701 -709 -701 -19 0
-75 31 -84 46 -4 8 -17 14 -28 14 -25 0 -58 17 -82 41 -17 18 -16 20 9 58 22
35 26 52 28 123 l1 82 32 7 c46 9 83 36 83 59 0 11 4 20 10 20 13 0 90 70 90
82 0 5 9 18 20 30 22 24 26 38 10 38 -5 0 -10 -3 -10 -8 0 -4 -10 -12 -22 -17
-13 -6 -27 -20 -33 -32 -5 -13 -21 -27 -35 -33 -14 -6 -43 -22 -65 -35 -22
-14 -52 -25 -67 -25 -21 0 -28 -5 -28 -20 0 -11 -3 -20 -7 -20 -5 0 -35 -5
-68 -10 -33 -6 -80 -13 -104 -15 -25 -3 -52 -11 -60 -19 -14 -13 -19 -12 -40
5 -34 28 -87 25 -107 -6 -20 -30 -29 -31 -77 -5 -20 11 -51 20 -68 20 -35 0
-89 -34 -89 -56 0 -21 -17 -17 -23 6 -3 11 -12 20 -21 20 -9 0 -16 5 -16 10 0
6 -7 10 -15 10 -9 0 -20 12 -26 28 -23 57 -64 147 -70 152 -14 11 -28 48 -34
88 -3 23 -12 57 -20 77 -16 38 -20 75 -7 75 5 0 17 -8 28 -18 48 -45 160 -50
206 -10 13 11 34 30 48 42 14 11 31 40 38 64 14 46 19 49 48 27 31 -23 88 -19
122 10 17 14 37 25 45 25 17 0 42 63 32 80 -9 14 -61 13 -72 -2 -6 -7 -13 -26
-17 -41 -9 -37 -47 -54 -82 -38 -26 11 -27 14 -20 76 4 36 3 65 -1 65 -14 -1
-43 -27 -43 -39 0 -6 -4 -11 -10 -11 -5 0 -10 9 -10 19 0 10 -6 21 -13 24 -7
3 -19 24 -27 47 -13 39 -13 43 5 56 11 8 44 14 80 14 60 0 63 -1 108 -46 26
-25 47 -50 47 -55 0 -5 9 -9 20 -9 11 0 29 -9 39 -19 31 -31 57 -41 107 -41
71 0 114 19 164 72 25 27 51 48 57 48 41 0 68 167 39 239 -18 46 -15 154 6
178 7 9 17 25 23 37 6 11 20 25 33 31 12 5 20 15 18 21 -4 10 90 64 112 64 17
0 86 33 97 47 11 13 74 22 116 17 14 -1 45 -22 70 -46z m-1605 -85 c-3 -21 -6
-46 -6 -55 0 -14 -9 -18 -42 -18 -77 0 -106 -18 -92 -55 8 -21 40 -19 63 4 11
11 32 21 48 23 26 3 28 0 31 -34 2 -21 7 -38 13 -38 5 0 9 -8 9 -17 0 -15 -2
-16 -10 -3 -7 11 -10 6 -10 -20 0 -35 -1 -36 -36 -32 -19 2 -38 11 -41 18 -3
8 -16 14 -29 14 -14 0 -24 6 -24 15 0 7 -6 18 -14 22 -41 25 -47 98 -11 141
14 17 25 37 25 45 0 16 24 23 94 26 l39 1 -7 -37z m1033 -183 c16 -17 33 -39
36 -50 4 -11 12 -20 20 -20 17 0 25 -23 25 -73 0 -54 -9 -87 -24 -87 -7 0 -18
-17 -25 -37 -8 -21 -32 -55 -54 -77 -41 -40 -41 -40 -121 -41 -78 0 -82 1
-116 33 -19 17 -42 32 -50 32 -17 0 -56 39 -78 78 -11 20 -11 31 4 73 19 51
19 52 94 63 19 3 69 17 110 30 66 20 75 26 75 47 0 21 -4 24 -40 24 -22 0 -51
-4 -65 -9 -21 -7 -22 -7 -10 5 25 23 72 37 132 38 50 1 60 -2 87 -29z m2734
-213 c-2 -60 -29 -111 -64 -120 -10 -3 -22 -13 -25 -24 -7 -21 -39 -88 -57
-120 -7 -11 -27 -35 -45 -51 -18 -17 -31 -38 -31 -49 1 -15 2 -15 6 -1 4 17
32 33 41 23 3 -3 0 -5 -6 -5 -7 0 -12 -5 -12 -12 0 -38 -58 -127 -112 -171
-43 -35 -58 -54 -58 -73 0 -32 31 -30 40 2 5 23 60 74 79 74 10 0 35 37 36 53
0 4 10 19 23 32 12 13 27 38 34 57 27 81 53 78 45 -4 -8 -88 -23 -131 -57
-168 -17 -18 -30 -37 -30 -43 0 -17 -50 -77 -62 -74 -7 1 -18 -10 -25 -25 -8
-16 -18 -28 -23 -28 -13 0 -80 -69 -80 -82 0 -16 -31 -48 -46 -48 -17 0 -28
-42 -20 -75 4 -16 11 -22 21 -19 11 4 20 -5 31 -32 32 -81 33 -83 189 -245 8
-9 15 -21 15 -27 0 -7 6 -12 13 -12 15 -1 97 -77 97 -90 0 -6 9 -10 19 -10 11
0 36 -22 60 -51 44 -55 116 -122 143 -132 9 -3 19 -19 23 -35 3 -17 14 -32 24
-35 10 -2 28 -25 40 -50 12 -25 33 -57 46 -71 14 -15 25 -36 25 -47 0 -10 4
-19 10 -19 21 0 75 -148 86 -237 4 -29 10 -53 15 -53 5 0 9 -12 8 -27 l-1 -28
-8 25 c-6 20 -8 14 -9 -28 -1 -29 -7 -67 -15 -85 -21 -48 -103 -128 -148 -143
-9 -3 -19 -12 -22 -20 -8 -20 -122 -20 -130 1 -3 8 -13 15 -23 15 -22 0 -83
42 -83 57 0 7 -12 16 -26 19 -35 9 -67 41 -94 92 -12 23 -26 42 -32 42 -12 0
-47 41 -48 56 0 6 -10 20 -22 31 -37 33 -78 81 -78 89 0 5 -20 50 -45 101 -33
68 -49 91 -60 87 -11 -5 -15 1 -15 18 0 13 -4 28 -8 34 -10 10 -57 144 -66
187 -4 15 -10 26 -15 23 -4 -3 -15 18 -24 47 -35 112 -47 156 -47 170 0 8 -7
17 -15 21 -8 3 -18 24 -21 46 -4 23 -12 44 -19 46 -7 3 -16 24 -19 47 -4 23
-15 67 -25 97 -11 30 -27 84 -37 120 -11 43 -27 74 -46 92 -23 22 -28 35 -28
76 0 32 5 54 15 62 8 7 15 20 15 30 0 10 6 20 13 23 7 3 21 28 30 56 18 58 62
121 83 121 8 0 14 7 14 15 0 9 10 20 23 24 12 5 37 23 55 40 17 16 32 28 32
25 0 -3 7 1 15 10 8 8 15 18 15 23 0 11 67 53 85 53 8 0 34 20 57 45 23 25 47
45 53 45 10 0 27 26 41 63 3 9 12 17 19 17 6 0 20 9 30 20 11 12 28 20 39 18
18 -3 21 -10 20 -51 0 -40 -5 -52 -28 -70 -15 -12 -32 -33 -39 -46 -7 -13 -15
-22 -19 -20 -3 2 -17 -5 -30 -17 -13 -12 -31 -24 -40 -27 -23 -8 -24 -47 -2
-47 9 0 25 11 36 25 11 14 25 25 32 25 6 0 35 23 64 52 44 43 56 64 77 131 14
44 25 89 25 100 0 10 9 21 20 24 11 3 20 14 20 25 0 28 19 60 33 55 8 -3 11
-25 10 -60z m38 -104 c12 -33 -5 -158 -31 -223 -10 -25 -21 -57 -24 -72 -11
-49 -26 -30 -26 33 0 47 -3 60 -14 56 -7 -3 -21 4 -30 14 -9 11 -21 17 -26 14
-17 -11 -11 16 10 42 11 14 20 32 20 39 0 8 8 14 19 14 11 0 23 12 31 30 13
31 47 80 56 80 2 0 9 -12 15 -27z m-3583 -18 c-32 -27 -35 -51 -12 -83 26 -38
64 -26 91 27 34 69 44 76 84 58 19 -8 40 -17 48 -19 8 -2 15 -11 17 -19 1 -7
8 -42 15 -76 18 -87 1 -159 -44 -190 -59 -41 -201 -22 -215 29 -2 10 -8 18
-13 18 -5 0 -9 7 -9 15 0 8 -9 20 -20 27 -11 7 -20 18 -20 25 0 7 -7 16 -15
20 -9 6 -17 33 -21 78 l-6 70 63 21 c83 28 89 28 57 -1z m3546 -1183 c14 -21
26 -43 26 -50 0 -6 11 -18 23 -27 22 -14 47 -54 47 -75 0 -11 -71 60 -107 106
-13 18 -36 34 -54 38 -46 9 -27 35 32 45 4 1 18 -16 33 -37z m-2973 -1127 c13
-42 31 -84 41 -95 10 -10 18 -25 18 -33 0 -7 3 -17 7 -20 9 -10 43 -110 39
-115 -7 -6 -45 8 -59 22 -21 21 -94 56 -117 56 -11 0 -23 7 -26 15 -3 8 -14
17 -24 20 -10 3 -30 17 -45 31 l-28 26 84 84 c46 46 85 84 86 84 1 0 12 -34
24 -75z m-737 38 c3 -4 -8 -20 -26 -36 -31 -29 -32 -29 -41 -9 -14 31 -2 52
31 52 16 0 32 -3 36 -7z m-355 -342 c12 -8 12 -12 -2 -25 -17 -18 -57 -22 -57
-6 0 6 -11 10 -25 10 -14 0 -25 4 -25 9 0 17 86 26 109 12z m1573 -4 c9 -7 20
-25 23 -40 4 -15 13 -27 20 -27 7 0 15 -6 19 -12 15 -34 63 -110 83 -132 29
-33 14 -33 -40 -2 -23 14 -66 32 -94 41 -30 10 -53 23 -53 31 0 8 -7 14 -16
14 -9 0 -39 14 -66 30 -26 17 -58 30 -69 30 -27 0 -19 24 9 28 12 2 20 7 18
11 -3 4 23 13 57 20 34 7 67 14 72 16 16 6 19 5 37 -8z m198 -262 c0 -8 -4
-15 -10 -15 -5 0 -10 7 -10 15 0 8 5 15 10 15 6 0 10 -7 10 -15z"/>
<path d="M4465 8780 c-87 -14 -107 -19 -100 -30 3 -6 -2 -10 -12 -10 -10 0
-63 -12 -118 -26 -55 -14 -127 -30 -159 -35 -33 -5 -66 -15 -74 -22 -8 -6 -40
-16 -71 -22 -53 -10 -56 -11 -56 -40 0 -22 6 -33 23 -40 40 -18 27 -41 -29
-51 -69 -12 -82 -33 -46 -70 36 -35 34 -52 -5 -62 -25 -6 -34 -14 -36 -34 -3
-21 7 -34 52 -69 31 -24 56 -51 56 -60 0 -11 14 -20 42 -27 48 -13 58 -9 58
21 0 34 -12 46 -69 73 -63 28 -67 55 -11 64 51 9 67 20 49 34 -8 6 -20 23 -28
39 -8 15 -20 27 -28 27 -29 0 -10 20 25 25 20 4 48 11 61 16 24 10 24 9 5 77
-5 19 -2 22 19 22 14 0 30 6 34 13 7 11 52 25 148 44 16 3 34 12 40 20 5 7 35
17 65 22 30 6 69 14 85 20 17 5 92 17 167 27 132 17 143 17 253 0 130 -21 198
-49 203 -83 4 -24 18 -29 41 -14 17 11 5 51 -15 51 -8 0 -33 14 -56 30 -22 17
-50 30 -62 31 -13 0 -16 3 -7 6 8 3 -1 11 -25 20 -47 18 -330 26 -419 13z"/>
<path d="M5235 8750 c3 -6 -4 -10 -18 -10 -85 0 -168 -91 -166 -182 1 -23 3
-34 6 -23 13 59 63 125 107 142 70 26 214 8 229 -29 4 -10 6 -10 6 1 3 44 71
-102 71 -152 0 -22 -28 -104 -41 -123 -5 -6 -36 -19 -69 -30 -41 -13 -60 -24
-60 -35 0 -30 27 -42 75 -34 37 5 55 16 95 57 71 72 82 131 49 261 -6 21 -16
37 -24 37 -8 0 -15 9 -15 19 0 28 -55 66 -117 82 -29 7 -53 16 -53 21 0 4 -18
8 -41 8 -24 0 -38 -4 -34 -10z"/>
<path d="M5240 8563 c-19 -3 -43 -14 -53 -24 -11 -11 -30 -24 -43 -29 -32 -13
-41 -37 -20 -58 15 -15 19 -15 51 2 34 18 44 18 77 -6 9 -7 21 -9 25 -4 4 4
-2 15 -14 23 -13 9 -23 19 -23 23 0 4 27 15 60 25 103 31 63 63 -60 48z"/>
<path d="M4787 7253 c-16 -3 -31 -11 -34 -19 -3 -8 -11 -14 -19 -14 -8 0 -14
-6 -14 -12 0 -14 -45 -38 -70 -38 -22 0 -53 -35 -47 -52 4 -10 6 -10 6 0 2 20
28 14 34 -9 3 -12 10 -18 16 -15 12 8 48 -41 57 -80 4 -16 12 -35 17 -42 8
-11 5 -19 -13 -33 -14 -10 -29 -19 -33 -19 -5 0 -7 -10 -5 -22 2 -19 9 -23 33
-21 16 1 35 9 41 18 6 8 16 15 21 15 6 0 21 8 34 18 13 10 52 27 86 38 41 12
63 24 63 34 0 17 57 53 70 45 13 -8 50 45 50 73 0 34 -32 101 -47 102 -7 0
-22 9 -33 20 -17 17 -32 20 -102 19 -46 -1 -96 -4 -111 -6z m133 -70 c-8 -2
-24 -8 -35 -13 -11 -4 -42 -16 -70 -26 -27 -10 -56 -24 -63 -31 -7 -7 -18 -13
-23 -13 -12 0 -29 43 -20 52 8 9 155 36 196 36 17 0 23 -2 15 -5z m-31 -127
c-11 -11 -93 -34 -105 -29 -23 8 -16 21 14 26 39 6 96 8 91 3z"/>
<path d="M4722 7688 c-16 -16 -15 -38 4 -95 17 -53 37 -73 70 -73 38 0 45 54
17 119 -9 22 -24 42 -33 44 -8 3 -22 8 -30 11 -9 4 -21 1 -28 -6z"/>
<path d="M7120 6973 c-40 -14 -87 -39 -100 -53 -20 -20 -43 -71 -35 -79 8 -7
45 36 45 53 0 6 22 21 49 34 60 28 92 52 71 51 -8 0 -22 -3 -30 -6z"/>
<path d="M4272 7430 c-30 -49 -9 -108 52 -139 38 -20 48 -22 61 -11 18 15 13
56 -14 106 -35 65 -75 82 -99 44z"/>
<path d="M5980 1985 l0 -385 44 0 44 0 4 173 c4 186 11 214 64 256 36 28 112
29 147 1 39 -31 47 -77 47 -262 l0 -168 46 0 45 0 -3 208 c-3 186 -5 211 -23
241 -29 49 -67 73 -123 79 -64 6 -115 -12 -163 -55 l-39 -35 0 166 0 166 -45
0 -45 0 0 -385z"/>
<path d="M7510 2340 c-32 -32 -24 -75 17 -91 38 -14 83 14 83 54 0 23 -35 57
-60 57 -11 0 -29 -9 -40 -20z"/>
<path d="M4491 2322 c-72 -26 -102 -50 -128 -102 -28 -55 -29 -101 -3 -155 23
-48 70 -84 187 -145 46 -23 97 -58 114 -78 27 -30 30 -41 26 -74 -6 -48 -28
-73 -75 -89 -66 -22 -161 -4 -264 49 -5 2 -8 -19 -8 -48 0 -49 1 -52 38 -68
27 -12 67 -16 147 -17 96 0 116 3 158 24 115 56 139 198 49 292 -20 21 -84 63
-142 94 -126 68 -140 80 -147 132 -11 82 81 133 203 113 29 -5 66 -16 83 -25
l31 -16 0 51 c0 46 -3 51 -27 61 -54 21 -183 21 -242 1z"/>
<path d="M2707 2324 c-4 -4 -7 -169 -7 -366 l0 -358 50 0 50 0 2 295 3 295
190 -295 190 -294 58 -1 57 0 0 366 0 365 -47 -3 -48 -3 0 -297 c0 -163 -1
-295 -3 -294 -1 2 -87 135 -191 297 l-188 294 -54 3 c-30 2 -58 0 -62 -4z"/>
<path d="M6780 2327 c0 -5 236 -660 251 -699 10 -25 16 -28 63 -28 l51 0 129
353 c71 193 131 358 134 365 3 8 -10 12 -46 12 l-49 0 -109 -309 -109 -310
-73 212 c-40 117 -87 255 -106 307 l-33 95 -52 3 c-28 2 -51 1 -51 -1z"/>
<path d="M3620 2121 c-111 -34 -170 -114 -178 -243 -10 -173 86 -288 242 -288
95 0 135 15 191 73 59 61 75 105 75 208 0 123 -61 218 -159 248 -43 12 -133
13 -171 2z m167 -91 c42 -25 65 -71 70 -145 10 -115 -32 -192 -115 -214 -123
-34 -225 71 -208 212 13 110 69 167 165 167 38 0 66 -6 88 -20z"/>
<path d="M5651 2118 c-76 -21 -149 -97 -171 -177 -14 -50 -12 -149 4 -194 36
-100 123 -157 236 -156 36 0 81 6 100 13 32 12 35 17 38 56 3 38 1 42 -15 35
-95 -40 -141 -41 -201 -4 -111 67 -107 259 7 336 40 27 122 31 176 9 l35 -15
0 44 c0 42 -1 44 -37 54 -46 13 -126 13 -172 -1z"/>
<path d="M7885 2115 c-51 -18 -118 -91 -139 -152 -9 -25 -16 -76 -16 -112 1
-117 44 -196 128 -238 47 -23 61 -25 135 -21 51 3 96 12 120 23 33 17 37 23
37 57 0 21 -2 38 -5 38 -3 0 -24 -9 -47 -21 -22 -11 -64 -23 -92 -26 -93 -8
-171 52 -178 137 l-3 35 184 3 183 2 -7 58 c-10 91 -27 134 -67 174 -56 56
-147 73 -233 43z m128 -69 c45 -19 68 -48 74 -95 l6 -41 -136 0 -136 0 9 29
c20 70 71 114 138 120 7 0 27 -5 45 -13z"/>
<path d="M4900 1950 c0 -93 5 -192 11 -220 19 -90 82 -140 174 -140 59 0 104
19 138 59 l27 33 0 -41 0 -41 45 0 45 0 0 260 0 260 -45 0 -45 0 0 -167 c0
-143 -3 -174 -19 -210 -31 -68 -99 -97 -164 -69 -62 26 -71 56 -75 264 l-4
182 -44 0 -44 0 0 -170z"/>
<path d="M7500 1860 l0 -260 45 0 45 0 0 260 0 260 -45 0 -45 0 0 -260z"/>
<path d="M8267 2003 c20 -65 54 -181 77 -258 l42 -140 48 0 48 0 61 198 61
197 55 -197 56 -198 50 0 49 0 76 255 76 255 -39 3 c-22 2 -43 0 -47 -5 -4 -4
-31 -102 -61 -217 -30 -115 -55 -201 -57 -190 -2 10 -29 108 -59 217 l-56 197
-42 0 -42 0 -59 -204 c-32 -113 -62 -202 -65 -198 -3 4 -28 88 -54 187 -26 99
-50 188 -53 198 -3 13 -15 17 -52 17 l-48 0 35 -117z"/>
</g>
</svg>
