<?xml version="1.0" standalone="no"?><!DOCTYPE svg PUBLIC "-//W3C//DTD SVG 1.1//EN" "http://www.w3.org/Graphics/SVG/1.1/DTD/svg11.dtd"><svg t="1664596348433" class="icon" viewBox="0 0 1280 1024" version="1.1" xmlns="http://www.w3.org/2000/svg" p-id="2697" data-darkreader-inline-fill="" xmlns:xlink="http://www.w3.org/1999/xlink" width="250" height="200"><path d="M1280 399.8v108l-640 400L0 508v-108l640 400 640-400.2z m-389 144l94.2-58.8c-74.4-111.6-201.4-185.2-345.4-185.2-144 0-271 73.4-345.2 184.8h0.6c5-4.6 10.2-9 15.4-13.4 179.4-148.8 438.8-116.2 580.4 72.6z m-440.2 37.6c33.8-23.8 73-37.4 114.8-37.4 68.8 0 130.4 36.8 172.8 95.2l90.8-56.8c-41.8-59.8-111.2-99-189.6-99-77.8 0-146.8 38.8-188.8 98zM207.2 322.2c263.6-208.6 636.4-152.8 835 124.2l1.4 2 97.6-60.8C1034.2 224.2 849.6 116.2 639.8 116.2c-207 0-393.2 107-501 271.2 19.8-21 45.4-47 68.4-65.2z m934 65.4z" p-id="2698"></path></svg>