<?xml version="1.0" standalone="no"?><!DOCTYPE svg PUBLIC "-//W3C//DTD SVG 1.1//EN" "http://www.w3.org/Graphics/SVG/1.1/DTD/svg11.dtd"><svg t="1664184504001" class="icon" viewBox="0 0 1024 1024" version="1.1" xmlns="http://www.w3.org/2000/svg" p-id="2244" data-darkreader-inline-fill="" xmlns:xlink="http://www.w3.org/1999/xlink" width="200" height="200"><path d="M63.986643 412.927135c-35.405942 0-63.986643 28.5807-63.986643 63.986643v69.532151a63.986643 63.986643 0 1 0 127.973286 0v-69.532151c0-35.405942-28.5807-63.986643-63.986643-63.986643z m895.812999 0c-35.405942 0-63.986643 28.5807-63.986643 63.986643v69.532151a63.986643 63.986643 0 1 0 127.973286 0v-69.532151c0-35.405942-28.5807-63.986643-63.986643-63.986643zM284.953849 622.376746c-35.405942 0-63.986643 28.5807-63.986643 63.986642v69.532152a63.986643 63.986643 0 1 0 127.973286 0V686.789966c0-35.405942-28.5807-63.986643-63.986643-63.986643z m0-418.899222c-35.405942 0-63.986643 28.5807-63.986643 63.986643v228.645603a63.986643 63.986643 0 0 0 127.973286 0V267.037589c0-35.405942-28.5807-63.986643-63.986643-63.986643z m453.878586 0c-35.405942 0-63.986643 28.5807-63.986642 63.986643v69.958729a63.986643 63.986643 0 0 0 127.973285 0V267.464167c0-35.405942-28.5807-63.986643-63.986643-63.986643zM511.893142 0c-35.405942 0-63.986643 28.5807-63.986642 63.986643v69.532152a63.986643 63.986643 0 1 0 127.973285 0V63.986643C575.879785 28.5807 547.299085 0 511.893142 0z m0 825.85427c-35.405942 0-63.986643 28.5807-63.986642 63.986642v69.95873a63.986643 63.986643 0 1 0 127.973285 0.426577v-69.958729c0-34.979365-28.5807-63.986643-63.986643-63.986643z m226.939293-360.884666c-35.405942 0-63.986643 29.007278-63.986642 63.986643v227.365871a63.986643 63.986643 0 0 0 127.973285 0V528.956247c0-35.405942-28.5807-63.986643-63.986643-63.986643zM511.893142 261.49208c-35.405942 0-63.986643 29.007278-63.986642 63.986643v372.402261a63.986643 63.986643 0 0 0 127.973285 0V325.905301c0-35.405942-28.5807-63.986643-63.986643-63.986643z" p-id="2245"></path></svg>