<?xml version="1.0" standalone="no"?><!DOCTYPE svg PUBLIC "-//W3C//DTD SVG 1.1//EN" "http://www.w3.org/Graphics/SVG/1.1/DTD/svg11.dtd"><svg t="1664597036017" class="icon" viewBox="0 0 1024 1024" version="1.1" xmlns="http://www.w3.org/2000/svg" p-id="1380" data-darkreader-inline-fill="" xmlns:xlink="http://www.w3.org/1999/xlink" width="200" height="200"><path d="M263.68 667.306667a93.013333 93.013333 0 0 1 93.013333 93.013333C356.693333 810.666667 314.88 853.333333 263.68 853.333333 213.333333 853.333333 170.666667 810.666667 170.666667 760.32a93.013333 93.013333 0 0 1 93.013333-93.013333M170.666667 189.44A663.893333 663.893333 0 0 1 834.56 853.333333h-120.746667A543.146667 543.146667 0 0 0 170.666667 310.186667V189.44m0 241.493333a422.4 422.4 0 0 1 422.4 422.4h-120.746667A301.653333 301.653333 0 0 0 170.666667 551.68V430.933333z" fill="" p-id="1381"></path></svg>