<?xml version="1.0" standalone="no"?><!DOCTYPE svg PUBLIC "-//W3C//DTD SVG 1.1//EN" "http://www.w3.org/Graphics/SVG/1.1/DTD/svg11.dtd"><svg t="1664184516770" class="icon" viewBox="0 0 1024 1024" version="1.1" xmlns="http://www.w3.org/2000/svg" p-id="2418" data-darkreader-inline-fill="" xmlns:xlink="http://www.w3.org/1999/xlink" width="200" height="200"><path d="M704.4 573.1c2.8 11.6-0.5 15.8-12 16.3-3.3 0.1-9.1 0.9-9.4 2.3-1.1 5.7-0.6 11.6-0.3 17.5 0 0.7 2.6 1.7 4.1 1.8 2.8 0.2 5.7-0.2 8.5 0 4.4 0.2 10-1.7 10.1 6.1 0.1 6-3.5 11-9.7 11.6-5.4 0.5-10.9 0.3-16.3 0.3-15.4 0-30.8-0.2-46.1 0.1-5.7 0.1-8.3-1.7-8.3-7.5 0.1-42.1 0.1-84.2 0.4-126.3 0-2.5 2.9-6.9 4.6-7 4.2-0.3 9.9-3.1 12.6 3.7 0.7 1.7 3.2 3.4 5 3.7 3.7 0.5 7.5 0.1 11.3-0.3 1.7-0.2 4-0.8 4.9-2.1 5.6-7.6 11-7.2 18-0.4 2.6 2.5 8.1 2.3 12.4 2.8 4.4 0.5 10.5-2.8 11.5 4.9 0.8 5.9-4.3 11-10.8 11.5-13.8 1.2-14.4 1.9-13.4 15.8 0.3 3.7 1.6 5.7 5.6 5.5 3.5-0.2 7.1 0.1 10.6 0 3.6-0.1 7.4-0.6 7.8 4.6 0.4 5-0.3 9.8-5.9 11.4-3.8 1.1-7.9 1.6-11.8 1.8-4.1 0.1-5.7 1.7-6.1 5.9-1.3 15.3-1.2 15.6 14.2 15.6 2.9-0.1 5.5 0.2 8.5 0.4z m-40 37.8v-6.2c-0.2-17.3 3.7-15.5-15.9-15.2-2 0-5.6 2.3-5.6 3.6 0 5.9 1.1 11.7 1.8 17.6 0 0.1 0.9 0.2 1.3 0.2h18.4z m-11-59.3c-10.6 0-10.6 0-10.7 9.8-0.1 11.4 0.1 11.9 8.6 11.6 16.1-0.7 12.2 1.7 13.3-14 0.7-10-6-7.3-11.2-7.4z m10.5-39.6c-5.9 0-11.3-0.3-16.6 0.2-1.6 0.2-4 2.4-4.3 4-0.6 3.9-0.8 8.1 0 12 0.4 2 3.3 4.9 5.1 4.9 19.1-0.1 16.2 1.5 16.3-15.4 0-1.4-0.2-2.7-0.5-5.7zM947.1 627.5v-8.8c0-28.7 0.1-57.3-0.1-86 0-2.1-1.2-4.2-1.9-6.2-1.9 1.1-4.1 1.9-5.6 3.4-11.8 11.7-23.3 23.5-35.1 35.1-3.5 3.4-7.4 2.5-10.7-0.7-11.9-11.7-23.7-23.5-35.6-35.2-1.4-1.4-3.6-2-6.8-3.7v10.7c0 28.2-0.3 56.4 0.2 84.5 0.1 8.8-5 7.8-10.6 8-6.1 0.2-8.2-1.9-8.1-8.3 0.2-32.2-0.1-64.4-0.3-96.6 0-7.1-0.6-14.3 0.3-21.2 0.4-3.2 3.5-7.7 6.2-8.6 3.7-1.2 9.5-0.8 12.5 1.5 7.4 5.7 13.8 12.7 20.5 19.3 7.4 7.2 14.8 14.5 22.1 21.9 3.4 3.5 6 4.1 9.9 0.1 11.9-12.4 24.2-24.5 36.7-36.3 3.6-3.4 8.4-6.2 13.1-7.4 6.4-1.7 11.1 2.5 11.2 9.2 0.1 37.2 0.2 74.4 0 111.5-0.2 8.2-6.4 13-17.9 13.8zM233.9 621.7c-5.6-15.7-3.2-20.8 9.8-27.3 20.3-10.1 41.4-14 63.1-7.1 10.6 3.4 20.2 9.9 30.2 15.1 2.3 1.2 4.4 2.8 6.7 3.8 10.3 4.8 16.4 1.2 16.7-10 0.2-6.1 0.1-12.3 0-18.5-0.1-8.1-1.7-9.9-10.1-10.1-10.4-0.3-20.8-0.3-31.2-0.3-26.3 0-52.5-0.1-78.8 0.2-5.2 0.1-6.7-2.1-6.7-6.7 0-13.3 0.1-26.5 0-39.8 0-5.1 1.8-7.6 7.3-6.5 1.6 0.3 3.3 0.1 4.9-0.1 4.9-0.5 7 1.5 7 6.4-0.1 7.1 0.4 14.2-0.2 21.3-0.5 6.3 2.2 7.8 7.7 7.7 8-0.2 16.1-0.1 24.1-0.1 22.5 0 45 0.5 67.4-0.1 16.6-0.5 29.7 10.1 28.8 28.3-0.4 8.5 0.1 17-0.2 25.6-0.7 21.9-22.1 29.5-38.1 23.4-9.7-3.7-18.6-9.8-27.5-15.4-22.5-14.1-44.3-9.7-66.1 1.7-4.4 2.8-9.3 5.5-14.8 8.5zM138.8 535.5c20.3 0 40.7-0.2 61 0.1 10.8 0.1 13-0.6 12.3 12-0.7 13.4-7.2 20.8-20.7 21.6-3.1 0.2-8.9 1.9-8.9 2.4 0.7 6.1 6 3.6 9.5 4 4.2 0.5 8.6-0.4 12.7 0.3 2.8 0.4 5.3 2.5 7.9 3.8-2.3 3.1-4.3 8.6-6.9 8.9-10.6 1.5-21.5 1.8-32.3 2-25.5 0.3-51 0.3-76.4 0.3-8.7 0-17.4-0.1-26.1-0.7-7.5-0.5-4.1-6.6-4.6-10.4-0.6-4.7 3-4.4 6.2-4.3 5 0.1 10 0.3 14.9-0.1 1.5-0.1 2.8-2.3 4.1-3.6-1.4-0.8-2.8-2.2-4.4-2.4-17.1-2.4-24.5-12.7-20.4-29.8 0.4-1.8 4.9-3.8 7.5-3.8 21.5-0.3 43.1-0.2 64.6-0.2v-0.1z m-26.5 34.1c-0.3 0.6-0.7 1.1-1 1.7 1.6 1.3 3.2 3.8 4.9 3.8 14.1 0.4 28.3 0.4 42.5 0.1 1.5 0 2.9-2.9 5.6-5.7-19.1 0.1-35.5 0.1-52 0.1z m-24.4-18.7v2.1h102.3v-2.1H87.9zM724.1 573.9c0-14.2 0.8-28.5-0.2-42.6-1.2-16.8 16.9-38.9 34.4-38.6 17.9 0.4 35.9-0.8 53.9-1 7 0 8.2 3.1 5.6 9.7-4.6 11.9-14.9 9.7-24.1 10-9.9 0.4-19.9-0.1-29.7 0.5-11.7 0.7-20.3 9.4-20.6 21.4-0.6 24-3.6 19.9 18.1 20.2 15.1 0.2 30.3 0 45.4 0.2 2.3 0 5.6 1.1 6.4 2.7 0.9 1.7 0.1 5-0.8 7.1-2.9 6.8-8.6 9.8-15.8 9.9-15.1 0.1-30.3 0.2-45.4-0.1-5.7-0.1-8.8 0.9-8.5 7.6 0.5 12.5 0.4 25.1 0.2 37.6-0.1 3.1-1.1 8.3-2.7 8.7-4.6 1.2-9.7 0.9-14.6 0.3-0.8-0.1-1.7-4.1-1.8-6.3-0.1-15.9-0.1-31.7-0.1-47.6 0.2 0.3 0.3 0.3 0.3 0.3zM66.7 515.9h53.7c1.9 0 3.9 0.3 5.6-0.3 1.2-0.4 2.6-2.2 2.6-3.4 0-1.1-1.6-2.8-2.7-3.1-2.2-0.6-4.7-0.4-7-0.4H67.2c-0.4-1.6-0.8-2.4-0.9-3.3-0.8-12.1-0.8-12 11.4-12 15.1 0 30.3 0 45.4-0.2 2 0 4.5-1.5 5.9-3 2.9-3.2 16.3-3.6 19.5-0.7 2.1 1.9 5.2 3.6 7.8 3.7 16.1 0.3 32.2 0 48.3 0.3 2.7 0.1 5.4 2.3 8.1 3.5-1.8 3.3-2.9 8-5.7 9.6-3.6 2.1-8.6 2.1-13 2.2-12.5 0.2-25.1-0.1-37.6 0.2-2.4 0.1-6.7 1.9-6.9 3.3-0.5 5.5 4.4 3.6 7.2 3.7 16.1 0.2 32.2 0 48.3 0.3 2.6 0 5.1 1.9 7.6 2.9-1.7 3.3-2.7 8.1-5.4 9.5-4.2 2.1-9.5 2.5-14.4 2.6-34.5 0.2-69.1 0.1-103.6 0.1-4.9 0-9.9-0.5-14.8 0-7.5 0.8-8.9-3.1-8.3-9.2 0.1-1.9 0.3-3.5 0.6-6.3zM139.8 595.2h63.1c8.2 0 10.1 2 9.6 10.1-1.2 18.3-6.9 23.6-25.1 23.6H88.8c-17.5 0-27.2-13-21.9-29.9 0.6-1.9 4.6-4 7.1-4 22-0.3 44-0.2 65.9-0.2-0.1 0.2-0.1 0.3-0.1 0.4z m49.3 17.7v-1.6H88v1.6h101.1zM604.4 561.5c-10.1-1-18.7-1.9-27.4-2.7-13.2-1.1-16.3-13.9-17.3-24.1-0.3-3 0-6.1 0-9.2 0-5.6 2.3-8.7 8.5-8.7 8.6 0.1 9.1 0.3 9.1 9.2v5.7c0 9.4 1.8 11.1 11.5 11.1 16.1-0.1 16.1-0.1 16-16.2 0-14.5 0-14.4-14.7-14.5-5.7 0-11.4-0.1-17-0.3-6.8-0.2-9.4-5.1-10.8-10.6-0.9-3.3-0.4-5.9 4.4-5.8 11.5 0.2 23 0 34.5-0.1 4.2 0 8.5 0.1 12.7-0.2 6.2-0.5 7.8 2.9 7.8 8.2-0.1 15.8-0.1 31.6-0.3 47.4-0.3 20.8-0.3 41.6-1.3 62.3-0.4 9.1-8.7 13.6-19.1 15.6-1.1 0.2-2.4 0.1-3.5 0.1-8.9 0.1-13.3-6.6-9-14.6 1.1-2.1 5.5-3.3 8.5-3.5 4.8-0.3 7.3-3 7.4-6.9 0.2-14.1 0-28.2 0-42.2zM517.3 611.6c6.6 0 12.5-0.2 18.3 0.1 2.4 0.1 5.8 0.9 6.7 2.6 0.9 1.5-0.7 4.7-1.7 6.9-2.3 5.4-6.6 7.6-12.3 7.6-26.7 0-53.5-0.1-80.2 0.1-7.1 0.1-7-5-7.4-9.4-0.5-5 1.6-7.9 7.3-7.8 11.8 0.2 23.6-0.1 35.5-0.1 6.1 0 10.3-2.7 13.8-7.8 7.2-10.6 8.5-22.8 10.8-34.9 2.6-13.5 5.4-26.9 8.7-40.2 1.7-6.8 8.1-7.9 14-8.1 1.2 0 3.7 3.5 3.6 5.2-0.9 8.8-2.3 17.6-3.8 26.3-1.4 8-2.8 16.1-4.7 24-2.5 10.5-5.6 20.9-8.3 31.4-0.2 0.8-0.1 1.8-0.3 4.1zM417.1 511.6c-3.7 0-7.2 0.4-10.5-0.1-3-0.5-5.8-1.9-8.7-3 2.1-3.9 3.3-9.5 6.6-11.4 4.8-2.8 10.6-2.7 14.9-8.1 2.1-2.7 9.3-1.3 15.1-1.9 0.3 3.4 0.7 6.1 0.8 8.8 0.3 12.5 0.7 25.1 0.6 37.6-0.1 24.4-1 48.7-0.6 73.1 0.2 11.7-10.5 20.6-20.8 21.9-3 0.4-6.2 0.6-9.2 0.1-2.6-0.4-6.8-1.5-7.1-3-0.8-4-0.5-8.4 0.5-12.3 0.3-1.2 4.5-1.7 6.9-1.9 10.9-0.8 11.1-0.7 11.3-11.3 0.2-10.8 0.1-21.7 0.1-33.8-4.8 0-9.2-0.1-13.5 0-6 0.1-6.9-2.8-4.7-7.7 2.4-5.4 6.5-8.6 12.5-8.7 4.8 0 6-2.1 5.9-6.5-0.2-10.2-0.1-20.3-0.1-31.8zM294.8 490.5h50.4c15.6-0.1 28.5 8.2 27.6 27.2-0.3 6.4-0.3 12.8 0 19.1 0.3 5.2-2.4 6.6-6.9 6.5-1.9 0-3.8-0.3-5.6-0.1-4.3 0.5-6.1-1.4-6.2-5.6-0.1-5.2-0.3-10.4-0.5-15.6-0.5-11.3-2.6-13.5-14.2-13.6-25.1-0.2-50.1-0.1-75.2-0.1-5 0-9.9 0.2-14.9 0.1-6.8-0.2-11.6-3.9-14.1-9.9s-0.9-8.1 5.7-8.1h53.9v0.1zM483.1 487c7 2.1 15.3-3.6 18.2 6.9 11.3 0 22.7-0.2 34 0.1 2.5 0.1 6.5 1.3 7 2.8 0.7 2.3-0.4 6.3-2.2 7.9-3.3 2.9-7.6 6.2-11.6 6.3-26.9 0.8-53.9 0.8-80.9 1.1-5 0.1-7.1-3-6.6-7.1 0.5-4.3-1.7-11 6.3-11.2 9-0.1 17.9-0.1 26.9 0.3 4.7 0.3 9.1 0.5 8.9-7.1z" fill="#F33E32" p-id="2419" style="--darkreader-inline-fill: #ab140a;" data-darkreader-inline-fill=""></path><path d="M478.1 589.4c0.5 7.8-0.5 14.6-8.9 18-3.3 1.4-6 1.5-6.9-2.9-1.7-8.2-3.7-16.4-5.2-24.7-2.8-15.5-5.3-31-7.9-46.5 0-0.2-0.2-0.5-0.2-0.7 0.3-4.1-3.5-9.2 2.4-11.8 4.2-1.9 12.8 2 14.7 7 2.2 5.8 4.1 11.9 5.2 18 2.6 14.5 4.6 29.1 6.8 43.6zM553.3 626.6c4-9.3 7.9-18.6 12-27.8 3.6-8.2 7.5-16.3 11.2-24.5 3.5-7.7 11.4-12.5 19.8-11.4 5.7 0.7 3.9 5 2.6 8-5.7 12.9-11.5 25.9-17.9 38.6-2.8 5.7-5.9 11.8-10.7 15.6-3.8 3.1-10.2 2.9-15.4 4.2-0.5-0.9-1.1-1.8-1.6-2.7z" fill="#F33E32" p-id="2420" style="--darkreader-inline-fill: #f44b3f;" data-darkreader-inline-fill=""></path></svg>